# xmcd
#
# Track frame offsets: 
#        150
#        15498
#        32571
#        53919
#        72867
#        90390
#        106638
#        125286
#        139359
#
# Disc length: 2108 seconds
#
# Revision: 6
# Processed by: cddbd v1.5.2PL0 Copyright (c) Steve Scherf et al.
# Submitted via: ExactAudioCopyFreeDBPlugin 1.0
#
DISCID=6a083a09
DTITLE=CR戦国乙女 - CR戦国乙女２～Original Sound Track
DYEAR=2011
DGENRE=Soundtrack
TTITLE0=徳川イエヤス（千葉妙子） - 戦国乙女（イエヤス Ver.）
TTITLE1=徳川イエヤス（千葉妙子） - 剣戟乱舞（イエヤス Ver.）
TTITLE2=長宗我部モトチカ（井上麻里奈） - 乙女Rising
TTITLE3=毛利モトナリ（能登麻美子） - 茜さす契り
TTITLE4=今川ヨシモト（山本麻里安） - トキメキ一途～CHERRY MY LOVE
TTITLE5=大友ソウリン（加藤英美里） - 百花撩乱
TTITLE6=徳川イエヤス（千葉妙子） - 見果てぬ夢（イエヤス Ver.）
TTITLE7=徳川イエヤス（千葉妙子） - ぷれぜんと
TTITLE8=長宗我部モトチカ（井上麻里奈）・毛利モトナリ（能登麻美子）・大友ソウリン（加藤英美里） - 虹の架け橋
EXTD=YEAR: 2011
EXTT0=
EXTT1=
EXTT2=
EXTT3=
EXTT4=
EXTT5=
EXTT6=
EXTT7=
EXTT8=
PLAYORDER=
